<?xml version="1.0" standalone="no"?>
<!DOCTYPE svg PUBLIC "-//W3C//DTD SVG 20010904//EN"
 "http://www.w3.org/TR/2001/REC-SVG-20010904/DTD/svg10.dtd">
<svg version="1.0" xmlns="http://www.w3.org/2000/svg"
 width="366.000000pt" height="366.000000pt" viewBox="0 0 366.000000 366.000000"
 preserveAspectRatio="xMidYMid meet">
<metadata>
Created by potrace 1.11, written by Peter Selinger 2001-2013
</metadata>
<g transform="translate(0.000000,366.000000) scale(0.100000,-0.100000)"
fill="#000000" stroke="none">
<path d="M1600 3495 c-199 -28 -332 -70 -525 -165 -181 -90 -303 -178 -445
-320 -143 -144 -230 -265 -320 -445 -75 -153 -117 -273 -151 -435 -30 -142
-33 -477 -6 -615 73 -366 223 -651 477 -905 180 -180 348 -293 566 -379 807
-322 1712 9 2132 779 161 295 234 694 187 1013 -72 479 -294 859 -670 1148
-340 261 -812 384 -1245 324z m543 -64 c156 -31 274 -72 422 -146 411 -205
714 -564 844 -1002 51 -173 65 -279 65 -483 -1 -160 -4 -202 -27 -311 -49
-233 -125 -416 -255 -610 -234 -350 -601 -594 -1038 -691 -85 -19 -130 -22
-324 -22 -196 0 -238 2 -326 22 -338 74 -600 216 -840 456 -245 246 -397 533
-460 871 -26 137 -26 460 -1 587 68 339 213 621 441 857 264 273 617 446 1006
495 93 11 388 -2 493 -23z"/>
<path d="M924 2939 c-4 -7 100 -118 254 -273 144 -143 264 -264 268 -268 3 -4
-2 -16 -13 -27 -19 -20 -19 -20 -74 32 -31 29 -107 99 -170 157 -63 58 -143
132 -179 166 -149 139 -154 144 -162 131 -4 -7 -8 -14 -8 -17 0 -6 113 -124
341 -357 l179 -183 -21 -21 c-20 -20 -21 -20 -38 -2 -10 10 -128 124 -262 255
-134 130 -247 239 -251 243 -3 4 -14 3 -22 -2 -13 -7 -12 -13 11 -38 23 -25
367 -399 383 -415 3 -3 27 -29 53 -57 43 -44 48 -53 38 -72 -7 -11 -17 -21
-23 -21 -6 0 -127 119 -270 264 -167 170 -265 263 -274 259 -8 -3 -14 -9 -14
-13 0 -4 64 -79 143 -167 78 -88 171 -192 207 -233 149 -169 328 -353 361
-371 36 -19 78 -10 117 25 37 34 38 34 54 14 9 -10 43 -48 77 -83 38 -39 59
-68 55 -77 -4 -7 -43 -47 -88 -88 -44 -41 -120 -110 -167 -155 -47 -44 -148
-138 -224 -210 -76 -71 -163 -153 -193 -182 -30 -28 -107 -101 -172 -162 -161
-152 -171 -187 -77 -278 51 -49 56 -52 102 -49 45 3 52 7 113 72 117 124 218
231 442 470 41 44 139 148 218 231 78 83 152 163 163 177 20 26 44 34 51 17 2
-5 59 -69 128 -142 69 -74 159 -170 200 -214 41 -44 107 -114 145 -155 39 -41
100 -106 136 -145 174 -187 218 -234 269 -287 83 -85 128 -88 205 -17 55 51
71 94 52 141 -12 28 -107 123 -317 318 -19 18 -87 81 -150 140 -63 59 -133
125 -155 145 -22 21 -74 70 -115 109 -42 39 -122 114 -178 166 -56 52 -101 97
-100 101 2 4 56 64 121 132 116 124 118 125 150 116 52 -16 167 -13 229 5 282
83 566 543 462 749 -41 81 -104 119 -199 119 -195 2 -450 -152 -582 -351 -71
-106 -100 -258 -70 -357 12 -38 32 -14 -172 -206 l-83 -78 -88 81 -89 82 34
40 c37 42 42 78 17 122 -14 26 -221 228 -342 334 -52 46 -100 89 -105 95 -6 6
-46 42 -90 81 -44 38 -98 86 -120 106 -57 52 -102 89 -108 89 -3 0 -9 -5 -13
-11z m1510 -236 c-118 -113 -167 -206 -171 -322 -3 -109 23 -160 98 -191 40
-17 21 -30 -43 -30 -114 0 -160 56 -153 187 5 108 62 208 170 304 38 34 144
109 154 109 3 0 -22 -26 -55 -57z"/>
<path d="M1224 652 c-25 -16 -94 -141 -94 -169 0 -53 73 -98 119 -73 27 14 91
140 91 180 0 40 -31 70 -72 70 -18 0 -38 -4 -44 -8z m59 -48 c10 -10 -62 -144
-76 -144 -28 0 -26 15 11 81 34 64 49 78 65 63z"/>
<path d="M2338 639 l-38 -19 24 -53 c64 -140 87 -187 91 -187 3 0 23 9 44 20
52 26 84 67 76 97 -7 29 -72 134 -93 151 -22 17 -61 14 -104 -9z m107 -94 c20
-36 33 -70 30 -75 -15 -24 -37 -5 -70 59 -33 66 -33 77 -3 80 3 1 23 -28 43
-64z"/>
<path d="M1333 488 l-51 -123 26 -11 c34 -14 36 -13 53 38 l14 43 5 -55 c4
-47 8 -55 27 -58 16 -2 28 8 48 40 15 24 24 34 20 23 -4 -11 -9 -34 -12 -51
-5 -28 -2 -32 22 -38 15 -4 28 -6 30 -4 6 8 58 249 54 252 -2 2 -16 7 -31 11
-24 6 -30 3 -45 -25 -10 -17 -28 -48 -41 -68 l-22 -37 4 35 c18 126 18 127 -1
133 -10 2 -25 7 -33 11 -11 4 -27 -23 -67 -116z"/>
<path d="M2185 565 c-14 -13 -25 -30 -25 -37 0 -27 44 -164 58 -180 35 -42
142 -6 142 47 0 31 -58 167 -78 183 -26 20 -71 14 -97 -13z m89 -96 c31 -84
31 -89 7 -89 -15 0 -24 15 -40 62 -24 72 -26 98 -7 98 8 0 25 -30 40 -71z"/>
<path d="M1596 523 c-13 -48 -49 -234 -45 -237 2 -2 16 -7 31 -11 26 -7 27 -5
33 49 4 31 10 56 14 56 4 0 13 -27 19 -60 13 -59 13 -60 46 -60 l33 0 7 103
c4 56 9 115 12 130 6 26 4 28 -23 25 -25 -3 -28 -7 -33 -50 -8 -67 -17 -68
-25 -4 -5 39 -13 60 -26 66 -26 14 -37 12 -43 -7z"/>
<path d="M2022 524 c-26 -18 -28 -49 -10 -155 13 -80 25 -92 90 -87 30 2 46
10 60 29 19 25 19 27 -2 110 -12 46 -29 92 -37 102 -20 21 -71 22 -101 1z m79
-109 c11 -47 13 -74 6 -83 -15 -19 -34 3 -41 51 -4 23 -9 57 -13 75 -5 29 -3
33 13 30 14 -2 23 -20 35 -73z"/>
<path d="M1770 477 c0 -24 -3 -85 -6 -135 l-7 -92 32 0 31 0 0 135 0 135 -25
0 c-23 0 -25 -4 -25 -43z"/>
<path d="M1850 385 l0 -135 30 0 c30 0 30 1 30 54 0 52 1 54 31 60 42 8 36 40
-9 44 -28 3 -32 7 -32 33 0 26 3 29 34 29 38 0 49 10 40 34 -5 12 -20 16 -65
16 l-59 0 0 -135z"/>
</g>
</svg>
